<svg width="360" height="360" viewBox="0 0 360 360" fill="none" xmlns="http://www.w3.org/2000/svg">
<g opacity="0.5">
<path opacity="0.5" d="M180 360C279.411 360 360 279.411 360 180C360 80.5887 279.411 0 180 0C80.5887 0 0 80.5887 0 180C0 279.411 80.5887 360 180 360Z" fill="url(#paint0_linear_20_4)"/>
</g>
<path d="M180.351 355.054C277.665 355.054 356.555 276.165 356.555 178.85C356.555 81.5351 277.665 2.64584 180.351 2.64584C83.0359 2.64584 4.1467 81.5351 4.1467 178.85C4.1467 276.165 83.0359 355.054 180.351 355.054Z" fill="#F7F7F7"/>
<path d="M180.516 355.75C214.946 355.806 248.631 345.725 277.37 326.764C270.877 291.28 246.167 289.258 246.167 289.258H109.903C109.903 289.258 86.5857 291.172 79.3032 323.814C108.933 344.656 144.29 355.813 180.516 355.75Z" fill="#764AF1"/>
<path d="M178.644 260.185C225.615 260.185 263.692 222.107 263.692 175.136C263.692 128.165 225.615 90.0877 178.644 90.0877C131.672 90.0877 93.5948 128.165 93.5948 175.136C93.5948 222.107 131.672 260.185 178.644 260.185Z" fill="#333333"/>
<path opacity="0.1" d="M151.195 245.976H205.69V289.573C205.69 296.798 202.821 303.727 197.713 308.836C192.605 313.946 185.677 316.818 178.453 316.821C171.226 316.821 164.296 313.95 159.186 308.84C154.076 303.73 151.205 296.8 151.205 289.573V245.976H151.195Z" fill="black"/>
<path d="M152.923 243.954H203.983C204.441 243.954 204.881 244.136 205.205 244.46C205.529 244.784 205.711 245.224 205.711 245.682V287.551C205.711 291.131 205.007 294.675 203.637 297.982C202.267 301.29 200.259 304.294 197.728 306.825C195.197 309.356 192.192 311.363 188.884 312.732C185.577 314.101 182.032 314.805 178.453 314.804C171.226 314.804 164.296 311.933 159.186 306.823C154.076 301.713 151.205 294.783 151.205 287.556V245.682C151.205 245.226 151.386 244.788 151.708 244.464C152.029 244.14 152.466 243.957 152.923 243.954Z" fill="#EFC491"/>
<path opacity="0.1" d="M151.293 266.555C168.856 273.116 188.189 273.17 205.788 266.704V259.999H151.293V266.555Z" fill="black"/>
<path d="M178.644 270.201C221.783 270.201 256.755 235.229 256.755 192.089C256.755 148.949 221.783 113.978 178.644 113.978C135.504 113.978 100.532 148.949 100.532 192.089C100.532 235.229 135.504 270.201 178.644 270.201Z" fill="#EFC491"/>
<path opacity="0.1" d="M123.003 121.038C123.003 121.038 155.924 187.86 248.787 149.054L227.166 115.154L188.84 101.398L123.003 121.038Z" fill="black"/>
<path d="M123.003 120.058C123.003 120.058 155.924 186.88 248.787 148.064L227.166 114.163L188.84 100.408L123.003 120.058Z" fill="#333333"/>
<path d="M122.715 115.53C124.934 108.659 128.771 102.42 133.901 97.3393C149.266 82.1501 174.456 78.9473 187.375 61.6281C190.47 66.435 188.077 73.8258 182.734 75.8888C195.112 75.8063 209.455 74.7232 216.454 64.5421C218.184 68.5688 218.735 73.0037 218.044 77.3313C217.353 81.6589 215.447 85.7015 212.55 88.9891C223.52 89.5049 235.243 96.9318 235.934 107.892C236.409 115.195 231.808 122.106 225.83 126.294C219.853 130.482 212.57 132.406 205.427 133.979C184.57 138.585 109.104 157.858 122.715 115.53Z" fill="#333333"/>
<path d="M100.501 205.644C104.514 205.644 107.768 199.543 107.768 192.017C107.768 184.492 104.514 178.391 100.501 178.391C96.4874 178.391 93.2338 184.492 93.2338 192.017C93.2338 199.543 96.4874 205.644 100.501 205.644Z" fill="#EFC491"/>
<path d="M256.745 205.644C260.758 205.644 264.012 199.543 264.012 192.017C264.012 184.492 260.758 178.391 256.745 178.391C252.731 178.391 249.478 184.492 249.478 192.017C249.478 199.543 252.731 205.644 256.745 205.644Z" fill="#EFC491"/>
<defs>
<linearGradient id="paint0_linear_20_4" x1="180" y1="360" x2="180" y2="0" gradientUnits="userSpaceOnUse">
<stop stop-color="#808080" stop-opacity="0.25"/>
<stop offset="0.54" stop-color="#808080" stop-opacity="0.12"/>
<stop offset="1" stop-color="#808080" stop-opacity="0.1"/>
</linearGradient>
</defs>
</svg>
