<svg width="511" height="373" viewBox="0 0 511 373" fill="none" xmlns="http://www.w3.org/2000/svg">
<g clip-path="url(#clip0_15_60)">
<path d="M297.657 65.7556C307.234 65.7556 314.998 57.9637 314.998 48.3519C314.998 38.7401 307.234 30.9482 297.657 30.9482C288.08 30.9482 280.316 38.7401 280.316 48.3519C280.316 57.9637 288.08 65.7556 297.657 65.7556Z" fill="#F2F2F2"/>
<path d="M432.175 324.046C457.95 304.342 470.261 271.233 462.554 239.649C462.362 238.864 462.16 238.081 461.947 237.3C456.838 218.552 444.197 200.733 425.773 194.742C410.303 189.713 393.418 193.58 377.279 191.58C345.598 187.654 321.036 161.927 303.754 134.991C286.472 108.055 273.19 77.9039 250.225 55.6508C212.372 18.9702 150.624 11.0729 103.692 34.9492C56.7598 58.8255 26.8644 111.797 28.1393 164.59C29.4143 217.383 60.6419 267.856 105.992 294.636C122.652 304.474 141.921 311.443 161.097 309.004C177.736 306.888 192.854 297.915 209.415 295.251C235.452 291.063 261.323 302.878 283.844 316.646C306.364 330.414 328.117 346.733 353.708 353.116C378.557 359.314 409.342 341.5 432.175 324.046Z" fill="#F2F2F2"/>
<path d="M0 283.073C5.64193 289.782 11.7443 296.087 18.2625 301.942L492.737 302.594C499.256 296.739 505.358 290.434 511 283.724L0 283.073Z" fill="#3F3D56"/>
<path d="M321.757 222.651V278.513C321.757 279.225 322.039 279.907 322.541 280.411C323.043 280.914 323.723 281.197 324.432 281.198H406.915C407.624 281.197 408.304 280.914 408.806 280.411C409.308 279.907 409.59 279.225 409.59 278.513V222.651C409.588 221.939 409.306 221.258 408.805 220.755C408.303 220.252 407.624 219.97 406.915 219.969H324.432C323.723 219.97 323.044 220.252 322.542 220.755C322.041 221.258 321.759 221.939 321.757 222.651Z" fill="#3F3D56"/>
<path d="M323.692 223.346V277.824C323.693 278.204 323.843 278.569 324.111 278.838C324.379 279.107 324.743 279.258 325.122 279.259H406.228C406.607 279.258 406.971 279.107 407.239 278.838C407.507 278.569 407.657 278.204 407.658 277.824V223.346C407.658 222.965 407.508 222.6 407.24 222.33C406.972 222.061 406.608 221.909 406.228 221.908H325.122C324.742 221.909 324.379 222.061 324.111 222.33C323.842 222.6 323.692 222.965 323.692 223.346Z" fill="#9C9C9C"/>
<path d="M320.032 289.407C320.183 289.598 320.375 289.751 320.594 289.856C320.812 289.961 321.052 290.015 321.294 290.014H409.614C409.855 290.013 410.094 289.959 410.312 289.855C410.53 289.75 410.722 289.598 410.874 289.41C411.026 289.222 411.135 289.002 411.191 288.766C411.248 288.531 411.252 288.285 411.203 288.048L409.832 281.512C409.775 281.246 409.652 280.998 409.476 280.791C409.299 280.584 409.073 280.424 408.82 280.327C408.636 280.255 408.44 280.218 408.243 280.218H322.66C322.462 280.218 322.267 280.255 322.083 280.327C321.829 280.424 321.604 280.584 321.427 280.791C321.25 280.998 321.128 281.246 321.071 281.512L319.7 288.048C319.651 288.285 319.656 288.53 319.713 288.765C319.77 289 319.879 289.22 320.032 289.407Z" fill="#2F2E41"/>
<path d="M405.212 283.033H407.299C407.474 283.033 407.616 282.891 407.616 282.715V281.713C407.616 281.538 407.474 281.395 407.299 281.395H405.212C405.037 281.395 404.895 281.538 404.895 281.713V282.715C404.895 282.891 405.037 283.033 405.212 283.033Z" fill="#3F3D56"/>
<path d="M399.772 283.033H401.858C402.033 283.033 402.175 282.891 402.175 282.715V281.713C402.175 281.538 402.033 281.395 401.858 281.395H399.772C399.597 281.395 399.455 281.538 399.455 281.713V282.715C399.455 282.891 399.597 283.033 399.772 283.033Z" fill="#3F3D56"/>
<path d="M394.332 283.033H396.418C396.593 283.033 396.735 282.891 396.735 282.715V281.713C396.735 281.538 396.593 281.395 396.418 281.395H394.332C394.157 281.395 394.015 281.538 394.015 281.713V282.715C394.015 282.891 394.157 283.033 394.332 283.033Z" fill="#3F3D56"/>
<path d="M388.891 283.033H390.977C391.152 283.033 391.294 282.891 391.294 282.715V281.713C391.294 281.538 391.152 281.395 390.977 281.395H388.891C388.716 281.395 388.574 281.538 388.574 281.713V282.715C388.574 282.891 388.716 283.033 388.891 283.033Z" fill="#3F3D56"/>
<path d="M383.451 283.033H385.537C385.712 283.033 385.854 282.891 385.854 282.715V281.713C385.854 281.538 385.712 281.395 385.537 281.395H383.451C383.276 281.395 383.134 281.538 383.134 281.713V282.715C383.134 282.891 383.276 283.033 383.451 283.033Z" fill="#3F3D56"/>
<path d="M378.01 283.033H380.096C380.271 283.033 380.413 282.891 380.413 282.715V281.713C380.413 281.538 380.271 281.395 380.096 281.395H378.01C377.835 281.395 377.693 281.538 377.693 281.713V282.715C377.693 282.891 377.835 283.033 378.01 283.033Z" fill="#3F3D56"/>
<path d="M372.57 283.033H374.656C374.831 283.033 374.973 282.891 374.973 282.715V281.713C374.973 281.538 374.831 281.395 374.656 281.395H372.57C372.395 281.395 372.253 281.538 372.253 281.713V282.715C372.253 282.891 372.395 283.033 372.57 283.033Z" fill="#3F3D56"/>
<path d="M367.13 283.033H369.216C369.391 283.033 369.533 282.891 369.533 282.715V281.713C369.533 281.538 369.391 281.395 369.216 281.395H367.13C366.954 281.395 366.813 281.538 366.813 281.713V282.715C366.813 282.891 366.954 283.033 367.13 283.033Z" fill="#3F3D56"/>
<path d="M361.689 283.033H363.775C363.95 283.033 364.092 282.891 364.092 282.715V281.713C364.092 281.538 363.95 281.395 363.775 281.395H361.689C361.514 281.395 361.372 281.538 361.372 281.713V282.715C361.372 282.891 361.514 283.033 361.689 283.033Z" fill="#3F3D56"/>
<path d="M356.249 283.033H358.335C358.51 283.033 358.652 282.891 358.652 282.715V281.713C358.652 281.538 358.51 281.395 358.335 281.395H356.249C356.073 281.395 355.931 281.538 355.931 281.713V282.715C355.931 282.891 356.073 283.033 356.249 283.033Z" fill="#3F3D56"/>
<path d="M350.808 283.033H352.894C353.069 283.033 353.211 282.891 353.211 282.715V281.713C353.211 281.538 353.069 281.395 352.894 281.395H350.808C350.633 281.395 350.491 281.538 350.491 281.713V282.715C350.491 282.891 350.633 283.033 350.808 283.033Z" fill="#3F3D56"/>
<path d="M345.368 283.033H347.454C347.629 283.033 347.771 282.891 347.771 282.715V281.713C347.771 281.538 347.629 281.395 347.454 281.395H345.368C345.193 281.395 345.051 281.538 345.051 281.713V282.715C345.051 282.891 345.193 283.033 345.368 283.033Z" fill="#3F3D56"/>
<path d="M339.927 283.033H342.013C342.189 283.033 342.331 282.891 342.331 282.715V281.713C342.331 281.538 342.189 281.395 342.013 281.395H339.927C339.752 281.395 339.61 281.538 339.61 281.713V282.715C339.61 282.891 339.752 283.033 339.927 283.033Z" fill="#3F3D56"/>
<path d="M334.487 283.033H336.573C336.748 283.033 336.89 282.891 336.89 282.715V281.713C336.89 281.538 336.748 281.395 336.573 281.395H334.487C334.312 281.395 334.17 281.538 334.17 281.713V282.715C334.17 282.891 334.312 283.033 334.487 283.033Z" fill="#3F3D56"/>
<path d="M329.047 283.033H331.133C331.308 283.033 331.45 282.891 331.45 282.715V281.713C331.45 281.538 331.308 281.395 331.133 281.395H329.047C328.871 281.395 328.73 281.538 328.73 281.713V282.715C328.73 282.891 328.871 283.033 329.047 283.033Z" fill="#3F3D56"/>
<path d="M323.606 283.033H325.692C325.867 283.033 326.009 282.891 326.009 282.715V281.713C326.009 281.538 325.867 281.395 325.692 281.395H323.606C323.431 281.395 323.289 281.538 323.289 281.713V282.715C323.289 282.891 323.431 283.033 323.606 283.033Z" fill="#3F3D56"/>
<path d="M405.277 285.763H407.363C407.538 285.763 407.68 285.621 407.68 285.445V284.443C407.68 284.268 407.538 284.125 407.363 284.125H405.277C405.102 284.125 404.96 284.268 404.96 284.443V285.445C404.96 285.621 405.102 285.763 405.277 285.763Z" fill="#3F3D56"/>
<path d="M399.836 285.763H401.922C402.098 285.763 402.24 285.621 402.24 285.445V284.443C402.24 284.268 402.098 284.125 401.922 284.125H399.836C399.661 284.125 399.519 284.268 399.519 284.443V285.445C399.519 285.621 399.661 285.763 399.836 285.763Z" fill="#3F3D56"/>
<path d="M394.396 285.763H396.482C396.657 285.763 396.799 285.621 396.799 285.445V284.443C396.799 284.268 396.657 284.125 396.482 284.125H394.396C394.221 284.125 394.079 284.268 394.079 284.443V285.445C394.079 285.621 394.221 285.763 394.396 285.763Z" fill="#3F3D56"/>
<path d="M388.955 285.763H391.042C391.217 285.763 391.359 285.621 391.359 285.445V284.443C391.359 284.268 391.217 284.125 391.042 284.125H388.955C388.78 284.125 388.638 284.268 388.638 284.443V285.445C388.638 285.621 388.78 285.763 388.955 285.763Z" fill="#3F3D56"/>
<path d="M383.515 285.763H385.601C385.776 285.763 385.918 285.621 385.918 285.445V284.443C385.918 284.268 385.776 284.125 385.601 284.125H383.515C383.34 284.125 383.198 284.268 383.198 284.443V285.445C383.198 285.621 383.34 285.763 383.515 285.763Z" fill="#3F3D56"/>
<path d="M378.075 285.763H380.161C380.336 285.763 380.478 285.621 380.478 285.445V284.443C380.478 284.268 380.336 284.125 380.161 284.125H378.075C377.9 284.125 377.758 284.268 377.758 284.443V285.445C377.758 285.621 377.9 285.763 378.075 285.763Z" fill="#3F3D56"/>
<path d="M372.634 285.763H374.72C374.895 285.763 375.037 285.621 375.037 285.445V284.443C375.037 284.268 374.895 284.125 374.72 284.125H372.634C372.459 284.125 372.317 284.268 372.317 284.443V285.445C372.317 285.621 372.459 285.763 372.634 285.763Z" fill="#3F3D56"/>
<path d="M367.194 285.763H369.28C369.455 285.763 369.597 285.621 369.597 285.445V284.443C369.597 284.268 369.455 284.125 369.28 284.125H367.194C367.019 284.125 366.877 284.268 366.877 284.443V285.445C366.877 285.621 367.019 285.763 367.194 285.763Z" fill="#3F3D56"/>
<path d="M361.753 285.763H363.839C364.014 285.763 364.156 285.621 364.156 285.445V284.443C364.156 284.268 364.014 284.125 363.839 284.125H361.753C361.578 284.125 361.436 284.268 361.436 284.443V285.445C361.436 285.621 361.578 285.763 361.753 285.763Z" fill="#3F3D56"/>
<path d="M356.313 285.763H358.399C358.574 285.763 358.716 285.621 358.716 285.445V284.443C358.716 284.268 358.574 284.125 358.399 284.125H356.313C356.138 284.125 355.996 284.268 355.996 284.443V285.445C355.996 285.621 356.138 285.763 356.313 285.763Z" fill="#3F3D56"/>
<path d="M350.872 285.763H352.958C353.134 285.763 353.276 285.621 353.276 285.445V284.443C353.276 284.268 353.134 284.125 352.958 284.125H350.872C350.697 284.125 350.555 284.268 350.555 284.443V285.445C350.555 285.621 350.697 285.763 350.872 285.763Z" fill="#3F3D56"/>
<path d="M345.432 285.763H347.518C347.693 285.763 347.835 285.621 347.835 285.445V284.443C347.835 284.268 347.693 284.125 347.518 284.125H345.432C345.257 284.125 345.115 284.268 345.115 284.443V285.445C345.115 285.621 345.257 285.763 345.432 285.763Z" fill="#3F3D56"/>
<path d="M339.992 285.763H342.078C342.253 285.763 342.395 285.621 342.395 285.445V284.443C342.395 284.268 342.253 284.125 342.078 284.125H339.992C339.817 284.125 339.675 284.268 339.675 284.443V285.445C339.675 285.621 339.817 285.763 339.992 285.763Z" fill="#3F3D56"/>
<path d="M334.551 285.763H336.637C336.812 285.763 336.954 285.621 336.954 285.445V284.443C336.954 284.268 336.812 284.125 336.637 284.125H334.551C334.376 284.125 334.234 284.268 334.234 284.443V285.445C334.234 285.621 334.376 285.763 334.551 285.763Z" fill="#3F3D56"/>
<path d="M329.111 285.763H331.197C331.372 285.763 331.514 285.621 331.514 285.445V284.443C331.514 284.268 331.372 284.125 331.197 284.125H329.111C328.936 284.125 328.794 284.268 328.794 284.443V285.445C328.794 285.621 328.936 285.763 329.111 285.763Z" fill="#3F3D56"/>
<path d="M323.67 285.763H325.756C325.932 285.763 326.073 285.621 326.073 285.445V284.443C326.073 284.268 325.932 284.125 325.756 284.125H323.67C323.495 284.125 323.353 284.268 323.353 284.443V285.445C323.353 285.621 323.495 285.763 323.67 285.763Z" fill="#3F3D56"/>
<path d="M360.121 289.039H381.249C381.424 289.039 381.566 288.897 381.566 288.721V287.72C381.566 287.544 381.424 287.401 381.249 287.401H360.121C359.946 287.401 359.804 287.544 359.804 287.72V288.721C359.804 288.897 359.946 289.039 360.121 289.039Z" fill="#3F3D56"/>
<path d="M337.737 233.826H335.89C335.33 233.826 334.876 234.282 334.876 234.844C334.876 235.406 335.33 235.861 335.89 235.861H337.737C338.297 235.861 338.751 235.406 338.751 234.844C338.751 234.282 338.297 233.826 337.737 233.826Z" fill="white"/>
<path d="M358.859 233.826H357.012C356.452 233.826 355.999 234.282 355.999 234.844C355.999 235.406 356.452 235.861 357.012 235.861H358.859C359.419 235.861 359.873 235.406 359.873 234.844C359.873 234.282 359.419 233.826 358.859 233.826Z" fill="white"/>
<path d="M364.844 233.826H362.997C362.437 233.826 361.983 234.282 361.983 234.844C361.983 235.406 362.437 235.861 362.997 235.861H364.844C365.404 235.861 365.858 235.406 365.858 234.844C365.858 234.282 365.404 233.826 364.844 233.826Z" fill="white"/>
<path d="M353.114 233.657H341.636C341.076 233.657 340.622 234.112 340.622 234.674C340.622 235.236 341.076 235.692 341.636 235.692H353.114C353.674 235.692 354.128 235.236 354.128 234.674C354.128 234.112 353.674 233.657 353.114 233.657Z" fill="white"/>
<path d="M381.277 233.657H369.798C369.238 233.657 368.785 234.112 368.785 234.674C368.785 235.236 369.238 235.692 369.798 235.692H381.277C381.837 235.692 382.291 235.236 382.291 234.674C382.291 234.112 381.837 233.657 381.277 233.657Z" fill="white"/>
<path d="M343.37 238.419H341.523C340.963 238.419 340.509 238.875 340.509 239.437C340.509 239.999 340.963 240.454 341.523 240.454H343.37C343.93 240.454 344.384 239.999 344.384 239.437C344.384 238.875 343.93 238.419 343.37 238.419Z" fill="white"/>
<path d="M364.492 238.419H362.645C362.085 238.419 361.631 238.875 361.631 239.437C361.631 239.999 362.085 240.454 362.645 240.454H364.492C365.052 240.454 365.506 239.999 365.506 239.437C365.506 238.875 365.052 238.419 364.492 238.419Z" fill="white"/>
<path d="M370.476 238.419H368.63C368.07 238.419 367.616 238.875 367.616 239.437C367.616 239.999 368.07 240.454 368.63 240.454H370.476C371.036 240.454 371.49 239.999 371.49 239.437C371.49 238.875 371.036 238.419 370.476 238.419Z" fill="white"/>
<path d="M358.746 238.25H347.268C346.708 238.25 346.254 238.705 346.254 239.267C346.254 239.829 346.708 240.285 347.268 240.285H358.746C359.306 240.285 359.76 239.829 359.76 239.267C359.76 238.705 359.306 238.25 358.746 238.25Z" fill="white"/>
<path d="M386.909 238.25H375.431C374.871 238.25 374.417 238.705 374.417 239.267C374.417 239.829 374.871 240.285 375.431 240.285H386.909C387.469 240.285 387.923 239.829 387.923 239.267C387.923 238.705 387.469 238.25 386.909 238.25Z" fill="white"/>
<path d="M349.002 243.012H347.155C346.595 243.012 346.142 243.468 346.142 244.03C346.142 244.592 346.595 245.047 347.155 245.047H349.002C349.562 245.047 350.016 244.592 350.016 244.03C350.016 243.468 349.562 243.012 349.002 243.012Z" fill="white"/>
<path d="M370.124 243.012H368.277C367.718 243.012 367.264 243.468 367.264 244.03C367.264 244.592 367.718 245.047 368.277 245.047H370.124C370.684 245.047 371.138 244.592 371.138 244.03C371.138 243.468 370.684 243.012 370.124 243.012Z" fill="white"/>
<path d="M376.109 243.012H374.262C373.702 243.012 373.248 243.468 373.248 244.03C373.248 244.592 373.702 245.047 374.262 245.047H376.109C376.669 245.047 377.123 244.592 377.123 244.03C377.123 243.468 376.669 243.012 376.109 243.012Z" fill="white"/>
<path d="M364.379 242.843H352.901C352.341 242.843 351.887 243.298 351.887 243.86C351.887 244.422 352.341 244.878 352.901 244.878H364.379C364.939 244.878 365.393 244.422 365.393 243.86C365.393 243.298 364.939 242.843 364.379 242.843Z" fill="white"/>
<path d="M392.542 242.843H381.063C380.503 242.843 380.05 243.298 380.05 243.86C380.05 244.422 380.503 244.878 381.063 244.878H392.542C393.102 244.878 393.556 244.422 393.556 243.86C393.556 243.298 393.102 242.843 392.542 242.843Z" fill="white"/>
<path d="M354.635 247.605H352.788C352.228 247.605 351.774 248.061 351.774 248.623C351.774 249.185 352.228 249.64 352.788 249.64H354.635C355.195 249.64 355.649 249.185 355.649 248.623C355.649 248.061 355.195 247.605 354.635 247.605Z" fill="white"/>
<path d="M375.757 247.605H373.91C373.35 247.605 372.896 248.061 372.896 248.623C372.896 249.185 373.35 249.64 373.91 249.64H375.757C376.317 249.64 376.771 249.185 376.771 248.623C376.771 248.061 376.317 247.605 375.757 247.605Z" fill="white"/>
<path d="M381.741 247.605H379.895C379.335 247.605 378.881 248.061 378.881 248.623C378.881 249.185 379.335 249.64 379.895 249.64H381.741C382.301 249.64 382.755 249.185 382.755 248.623C382.755 248.061 382.301 247.605 381.741 247.605Z" fill="white"/>
<path d="M370.012 247.436H358.533C357.973 247.436 357.519 247.891 357.519 248.453C357.519 249.015 357.973 249.471 358.533 249.471H370.012C370.572 249.471 371.025 249.015 371.025 248.453C371.025 247.891 370.572 247.436 370.012 247.436Z" fill="white"/>
<path d="M358.859 265.869H357.012C356.452 265.869 355.999 266.325 355.999 266.887C355.999 267.449 356.452 267.904 357.012 267.904H358.859C359.419 267.904 359.873 267.449 359.873 266.887C359.873 266.325 359.419 265.869 358.859 265.869Z" fill="white"/>
<path d="M364.844 265.869H362.997C362.437 265.869 361.983 266.325 361.983 266.887C361.983 267.449 362.437 267.904 362.997 267.904H364.844C365.404 267.904 365.858 267.449 365.858 266.887C365.858 266.325 365.404 265.869 364.844 265.869Z" fill="white"/>
<path d="M381.277 266.039H369.798C369.238 266.039 368.785 266.495 368.785 267.056C368.785 267.618 369.238 268.074 369.798 268.074H381.277C381.837 268.074 382.291 267.618 382.291 267.056C382.291 266.495 381.837 266.039 381.277 266.039Z" fill="white"/>
<path d="M337.737 265.869H335.89C335.33 265.869 334.876 266.325 334.876 266.887C334.876 267.449 335.33 267.904 335.89 267.904H337.737C338.297 267.904 338.751 267.449 338.751 266.887C338.751 266.325 338.297 265.869 337.737 265.869Z" fill="white"/>
<path d="M353.114 266.039H341.636C341.076 266.039 340.622 266.495 340.622 267.056C340.622 267.618 341.076 268.074 341.636 268.074H353.114C353.674 268.074 354.128 267.618 354.128 267.056C354.128 266.495 353.674 266.039 353.114 266.039Z" fill="white"/>
<path d="M343.37 261.276H341.523C340.963 261.276 340.509 261.732 340.509 262.294C340.509 262.856 340.963 263.311 341.523 263.311H343.37C343.93 263.311 344.384 262.856 344.384 262.294C344.384 261.732 343.93 261.276 343.37 261.276Z" fill="white"/>
<path d="M364.492 261.276H362.645C362.085 261.276 361.631 261.732 361.631 262.294C361.631 262.856 362.085 263.311 362.645 263.311H364.492C365.052 263.311 365.506 262.856 365.506 262.294C365.506 261.732 365.052 261.276 364.492 261.276Z" fill="white"/>
<path d="M370.476 261.276H368.63C368.07 261.276 367.616 261.732 367.616 262.294C367.616 262.856 368.07 263.311 368.63 263.311H370.476C371.036 263.311 371.49 262.856 371.49 262.294C371.49 261.732 371.036 261.276 370.476 261.276Z" fill="white"/>
<path d="M358.746 261.446H347.268C346.708 261.446 346.254 261.901 346.254 262.463C346.254 263.025 346.708 263.481 347.268 263.481H358.746C359.306 263.481 359.76 263.025 359.76 262.463C359.76 261.901 359.306 261.446 358.746 261.446Z" fill="white"/>
<path d="M349.002 256.683H347.155C346.595 256.683 346.142 257.139 346.142 257.701C346.142 258.263 346.595 258.718 347.155 258.718H349.002C349.562 258.718 350.016 258.263 350.016 257.701C350.016 257.139 349.562 256.683 349.002 256.683Z" fill="white"/>
<path d="M370.124 256.683H368.277C367.718 256.683 367.264 257.139 367.264 257.701C367.264 258.263 367.718 258.718 368.277 258.718H370.124C370.684 258.718 371.138 258.263 371.138 257.701C371.138 257.139 370.684 256.683 370.124 256.683Z" fill="white"/>
<path d="M376.109 256.683H374.262C373.702 256.683 373.248 257.139 373.248 257.701C373.248 258.263 373.702 258.718 374.262 258.718H376.109C376.669 258.718 377.123 258.263 377.123 257.701C377.123 257.139 376.669 256.683 376.109 256.683Z" fill="white"/>
<path d="M364.379 256.853H352.901C352.341 256.853 351.887 257.308 351.887 257.87C351.887 258.432 352.341 258.888 352.901 258.888H364.379C364.939 258.888 365.393 258.432 365.393 257.87C365.393 257.308 364.939 256.853 364.379 256.853Z" fill="white"/>
<path d="M354.635 252.09H352.788C352.228 252.09 351.774 252.546 351.774 253.108C351.774 253.67 352.228 254.125 352.788 254.125H354.635C355.195 254.125 355.649 253.67 355.649 253.108C355.649 252.546 355.195 252.09 354.635 252.09Z" fill="white"/>
<path d="M375.757 252.09H373.91C373.35 252.09 372.896 252.546 372.896 253.108C372.896 253.67 373.35 254.125 373.91 254.125H375.757C376.317 254.125 376.771 253.67 376.771 253.108C376.771 252.546 376.317 252.09 375.757 252.09Z" fill="white"/>
<path d="M381.741 252.09H379.895C379.335 252.09 378.881 252.546 378.881 253.108C378.881 253.67 379.335 254.125 379.895 254.125H381.741C382.301 254.125 382.755 253.67 382.755 253.108C382.755 252.546 382.301 252.09 381.741 252.09Z" fill="white"/>
<path d="M370.012 252.26H358.533C357.973 252.26 357.519 252.715 357.519 253.277C357.519 253.839 357.973 254.295 358.533 254.295H370.012C370.572 254.295 371.025 253.839 371.025 253.277C371.025 252.715 370.572 252.26 370.012 252.26Z" fill="white"/>
<path d="M327.918 319.698L319.248 305.944L346.462 284.172L357.694 271.682C359.153 270.06 361.012 268.85 363.083 268.174C365.154 267.498 367.365 267.379 369.497 267.83C371.628 268.28 373.604 269.284 375.227 270.741C376.851 272.198 378.065 274.057 378.748 276.133C379.761 279.209 379.543 282.559 378.141 285.476C376.739 288.394 374.262 290.651 371.234 291.77L353.472 298.338L327.918 319.698Z" fill="#FFB6B6"/>
<path d="M124.493 219.971V286.82H171.156V219.971C171.157 219.491 171.004 219.022 170.72 218.635C170.436 218.248 170.035 217.962 169.578 217.82C169.362 217.749 169.136 217.714 168.909 217.716H126.747C126.451 217.716 126.158 217.773 125.885 217.887C125.612 218 125.363 218.166 125.154 218.375C124.945 218.584 124.779 218.833 124.665 219.107C124.552 219.381 124.493 219.675 124.493 219.971ZM142.704 242.941C142.716 241.623 143.246 240.363 144.179 239.436C145.112 238.508 146.372 237.988 147.685 237.988C148.998 237.988 150.258 238.508 151.191 239.436C152.124 240.363 152.654 241.623 152.666 242.941V250.697C152.659 252.019 152.132 253.284 151.198 254.216C150.265 255.148 149.002 255.671 147.685 255.671C146.368 255.671 145.105 255.148 144.171 254.216C143.238 253.284 142.71 252.019 142.704 250.697V242.941Z" fill="#2F2E41"/>
<path d="M124.35 284.683V291.129C124.351 291.463 124.483 291.783 124.718 292.02C124.953 292.256 125.271 292.391 125.604 292.393H170.045C170.378 292.392 170.697 292.258 170.932 292.021C171.167 291.784 171.299 291.463 171.299 291.129V284.683H124.35Z" fill="#3F3D56"/>
<path d="M51.0857 119.255V241.311C51.0869 242.867 51.7031 244.358 52.799 245.458C53.8949 246.558 55.3809 247.176 56.9307 247.178H237.153C238.703 247.176 240.189 246.558 241.285 245.458C242.381 244.358 242.997 242.867 242.998 241.311V119.255C242.994 117.701 242.377 116.211 241.282 115.113C240.186 114.015 238.702 113.397 237.153 113.395H56.9307C55.3823 113.397 53.8977 114.015 52.8021 115.113C51.7066 116.211 51.0894 117.701 51.0857 119.255Z" fill="#3F3D56"/>
<path d="M55.3137 120.773V239.806C55.3151 240.637 55.6447 241.433 56.2302 242.021C56.8157 242.609 57.6095 242.94 58.4375 242.941H235.653C236.481 242.94 237.275 242.609 237.86 242.021C238.446 241.433 238.775 240.637 238.777 239.806V120.773C238.777 119.941 238.448 119.143 237.862 118.554C237.276 117.965 236.482 117.633 235.653 117.632H58.4375C57.6084 117.633 56.8139 117.965 56.2283 118.554C55.6427 119.143 55.3137 119.941 55.3137 120.773Z" fill="white"/>
<path d="M88.2018 291.957C88.3821 292.184 88.6114 292.367 88.8724 292.492C89.1333 292.617 89.4192 292.682 89.7085 292.68H195.14C195.429 292.68 195.713 292.615 195.973 292.49C196.234 292.366 196.463 292.184 196.644 291.96C196.826 291.735 196.956 291.472 197.023 291.191C197.091 290.91 197.096 290.617 197.037 290.334L195.4 282.532C195.332 282.213 195.186 281.917 194.975 281.67C194.764 281.423 194.495 281.233 194.192 281.117C193.973 281.031 193.739 280.987 193.504 280.987H91.3386C91.103 280.987 90.8695 281.031 90.6502 281.117C90.3473 281.233 90.0781 281.423 89.8671 281.67C89.6561 281.917 89.51 282.213 89.4422 282.532L87.8056 290.334C87.7474 290.617 87.7527 290.909 87.8212 291.19C87.8898 291.471 88.0198 291.733 88.2018 291.957Z" fill="#2F2E41"/>
<path d="M229.902 134.029H64.0819C63.9096 134.025 63.7456 133.954 63.625 133.83C63.5045 133.706 63.437 133.54 63.437 133.367C63.437 133.194 63.5045 133.028 63.625 132.904C63.7456 132.781 63.9096 132.709 64.0819 132.705H229.902C230.074 132.709 230.238 132.781 230.359 132.904C230.479 133.028 230.547 133.194 230.547 133.367C230.547 133.54 230.479 133.706 230.359 133.83C230.238 133.954 230.074 134.025 229.902 134.029Z" fill="#3F3D56"/>
<path d="M75.3695 129.326C77.5038 129.326 79.234 127.551 79.234 125.361C79.234 123.171 77.5038 121.396 75.3695 121.396C73.2352 121.396 71.505 123.171 71.505 125.361C71.505 127.551 73.2352 129.326 75.3695 129.326Z" fill="#3F3D56"/>
<path d="M88.7196 129.326C90.8539 129.326 92.5841 127.551 92.5841 125.361C92.5841 123.171 90.8539 121.396 88.7196 121.396C86.5853 121.396 84.8551 123.171 84.8551 125.361C84.8551 127.551 86.5853 129.326 88.7196 129.326Z" fill="#3F3D56"/>
<path d="M102.07 129.326C104.204 129.326 105.934 127.551 105.934 125.361C105.934 123.171 104.204 121.396 102.07 121.396C99.9354 121.396 98.2052 123.171 98.2052 125.361C98.2052 127.551 99.9354 129.326 102.07 129.326Z" fill="#3F3D56"/>
<path d="M221.863 122.377H212.381C212.193 122.381 212.015 122.459 211.884 122.594C211.753 122.728 211.68 122.909 211.68 123.097C211.68 123.285 211.753 123.466 211.884 123.601C212.015 123.735 212.193 123.813 212.381 123.817H221.863C222.051 123.815 222.231 123.738 222.364 123.603C222.496 123.468 222.57 123.286 222.57 123.097C222.57 122.908 222.496 122.726 222.364 122.591C222.231 122.457 222.051 122.379 221.863 122.377Z" fill="#3F3D56"/>
<path d="M221.863 125.082H212.381C212.193 125.086 212.015 125.164 211.883 125.298C211.752 125.433 211.679 125.614 211.679 125.802C211.679 125.99 211.752 126.171 211.883 126.306C212.015 126.44 212.193 126.518 212.381 126.522H221.863C222.051 126.52 222.232 126.443 222.365 126.308C222.497 126.173 222.572 125.992 222.572 125.802C222.572 125.613 222.497 125.431 222.365 125.296C222.232 125.161 222.051 125.084 221.863 125.082Z" fill="#3F3D56"/>
<path d="M221.863 127.787H212.381C212.193 127.791 212.015 127.869 211.884 128.004C211.753 128.138 211.68 128.319 211.68 128.507C211.68 128.695 211.753 128.876 211.884 129.01C212.015 129.145 212.193 129.223 212.381 129.227H221.863C222.051 129.225 222.231 129.147 222.364 129.013C222.496 128.878 222.57 128.696 222.57 128.507C222.57 128.318 222.496 128.136 222.364 128.001C222.231 127.866 222.051 127.789 221.863 127.787Z" fill="#3F3D56"/>
<path d="M450.456 287.512C450.742 288.348 451.285 289.071 452.006 289.579C452.727 290.086 453.591 290.35 454.471 290.335L471.676 289.89C472.564 289.873 473.421 289.568 474.121 289.021C474.822 288.474 475.326 287.714 475.561 286.855L477.995 260.726C478.859 261.119 479.8 261.312 480.748 261.293C481.571 261.273 482.383 261.089 483.136 260.754C483.889 260.418 484.569 259.937 485.137 259.338C485.705 258.739 486.149 258.033 486.446 257.261C486.742 256.489 486.883 255.667 486.863 254.84C486.842 254.013 486.659 253.199 486.325 252.443C485.991 251.687 485.511 251.005 484.914 250.435C484.317 249.865 483.614 249.419 482.845 249.121C482.076 248.824 481.256 248.682 480.433 248.703C480.054 248.701 479.676 248.741 479.305 248.82C478.902 248.383 478.412 248.035 477.867 247.799C477.322 247.563 476.733 247.444 476.14 247.45L449.674 248.136C449.455 248.144 449.236 248.171 449.022 248.217C448.441 248.326 447.891 248.558 447.407 248.898C446.924 249.238 446.518 249.678 446.218 250.188C445.919 250.698 445.731 251.267 445.669 251.857C445.606 252.446 445.67 253.042 445.857 253.604L450.456 287.512ZM478.495 258.952L480.227 252.725C480.424 252.006 480.429 251.247 480.24 250.526C480.324 250.525 480.399 250.485 480.483 250.485C481.671 250.46 482.82 250.91 483.678 251.734C484.537 252.558 485.034 253.691 485.062 254.883C485.09 256.075 484.646 257.23 483.827 258.094C483.007 258.957 481.881 259.46 480.693 259.491C479.925 259.515 479.165 259.329 478.495 258.952Z" fill="#764AF1"/>
<path d="M449.021 248.217C449.585 251.452 455.925 253.727 463.547 253.332C470.556 253.008 476.288 250.537 477.338 247.61C476.949 247.495 476.545 247.44 476.14 247.45L449.674 248.136C449.455 248.144 449.236 248.171 449.021 248.217Z" fill="#3F3D56"/>
<path d="M464.944 273.154C464.979 273.145 465.012 273.13 465.042 273.11L468.778 270.656C468.824 270.626 468.861 270.586 468.886 270.538C468.912 270.491 468.926 270.437 468.926 270.383C468.926 270.329 468.912 270.276 468.886 270.228C468.861 270.181 468.824 270.14 468.779 270.111L464.895 267.558C464.859 267.534 464.819 267.518 464.777 267.51C464.735 267.502 464.692 267.502 464.65 267.51C464.609 267.519 464.569 267.536 464.534 267.56C464.498 267.584 464.468 267.615 464.444 267.651C464.421 267.687 464.405 267.727 464.397 267.769C464.389 267.811 464.39 267.855 464.398 267.896C464.407 267.938 464.424 267.978 464.448 268.014C464.472 268.049 464.503 268.079 464.539 268.103L468.008 270.383L464.687 272.565C464.622 272.607 464.575 272.671 464.553 272.745C464.531 272.819 464.536 272.898 464.567 272.969C464.598 273.039 464.653 273.097 464.722 273.13C464.791 273.164 464.869 273.172 464.944 273.154H464.944Z" fill="white"/>
<path d="M459.042 273.427C459.105 273.411 459.162 273.376 459.205 273.328C459.248 273.28 459.276 273.219 459.284 273.155C459.293 273.091 459.283 273.025 459.254 272.967C459.226 272.909 459.18 272.86 459.124 272.828L455.68 270.846L459.009 268.365C459.043 268.339 459.072 268.307 459.094 268.271C459.116 268.234 459.13 268.193 459.137 268.151C459.143 268.109 459.141 268.065 459.13 268.024C459.12 267.983 459.101 267.943 459.076 267.909C459.051 267.875 459.019 267.846 458.982 267.824C458.946 267.802 458.905 267.787 458.863 267.781C458.821 267.775 458.778 267.777 458.736 267.788C458.695 267.798 458.656 267.816 458.622 267.842L454.895 270.62C454.852 270.653 454.817 270.695 454.794 270.744C454.772 270.793 454.761 270.847 454.764 270.901C454.768 270.955 454.784 271.007 454.812 271.053C454.841 271.099 454.88 271.138 454.927 271.164L458.801 273.393C458.874 273.436 458.961 273.447 459.042 273.427Z" fill="white"/>
<path d="M464.572 275.304C464.604 275.297 464.634 275.284 464.661 275.267C464.698 275.245 464.73 275.215 464.755 275.181C464.78 275.146 464.798 275.107 464.808 275.065C464.818 275.024 464.82 274.981 464.814 274.938C464.807 274.896 464.792 274.855 464.77 274.819L459.473 266.079C459.429 266.006 459.356 265.953 459.273 265.933C459.189 265.912 459.101 265.926 459.027 265.971C458.954 266.016 458.901 266.088 458.881 266.172C458.86 266.256 458.874 266.345 458.919 266.419L464.215 275.158C464.251 275.218 464.306 275.264 464.37 275.29C464.434 275.317 464.505 275.322 464.572 275.304Z" fill="white"/>
<path d="M166.804 170.008H138.105C136.934 170.008 135.985 170.961 135.985 172.136V174.95C135.985 176.125 136.934 177.077 138.105 177.077H166.804C167.975 177.077 168.924 176.125 168.924 174.95V172.136C168.924 170.961 167.975 170.008 166.804 170.008Z" fill="#764AF1"/>
<path d="M183.533 184.147H121.376C120.205 184.147 119.256 185.099 119.256 186.274V189.088C119.256 190.263 120.205 191.216 121.376 191.216H183.533C184.704 191.216 185.653 190.263 185.653 189.088V186.274C185.653 185.099 184.704 184.147 183.533 184.147Z" fill="#E6E6E6"/>
<path d="M183.533 198.285H121.376C120.205 198.285 119.256 199.238 119.256 200.413V203.227C119.256 204.402 120.205 205.355 121.376 205.355H183.533C184.704 205.355 185.653 204.402 185.653 203.227V200.413C185.653 199.238 184.704 198.285 183.533 198.285Z" fill="#E6E6E6"/>
<path d="M188.802 245.63L188.943 246.076L188.95 246.091L193.188 259.021L198.063 273.922L207.235 301.924L207.324 306.274V306.289L208.006 341.281L206.116 346.025L208.243 353.802C208.243 353.802 207.265 342.046 202.019 348.797C199.049 352.634 195.574 356.56 192.722 360.241C196.878 361.929 201.101 363.455 205.39 364.821C206.317 365.118 207.25 365.401 208.184 365.683C208.384 365.743 208.584 365.802 208.784 365.862C223.003 370.082 237.704 372.454 252.525 372.918C253.295 372.941 254.051 372.955 254.784 372.97C255.044 372.978 255.295 372.985 255.547 372.985C256.377 372.993 257.199 373 258.029 373C259.704 373 261.371 372.975 263.03 372.926C275.313 372.578 287.525 370.921 299.459 367.981C299.377 363.036 299.155 357.259 298.836 351.087C298.688 348.061 295.362 344.782 295.162 341.615C295.021 339.235 298.007 336.997 297.851 334.58C296.843 319.702 295.584 325.413 294.651 314.877C294.554 313.844 294.465 312.855 294.384 311.91C293.784 305.144 293.369 300.913 293.369 300.913L297.355 275.699L303.615 236.112L303.133 235.317L302.593 235.049L269.572 218.646L267.779 214.036C267.257 212.708 266.35 211.567 265.177 210.76C264.003 209.953 262.615 209.517 261.193 209.508L239.441 209.419C238.312 209.413 237.198 209.679 236.192 210.192C235.186 210.705 234.316 211.452 233.655 212.37L227.765 220.557L188.802 245.63Z" fill="#764AF1"/>
<path d="M212.251 295.693L207.324 306.274L203.961 313.502L198.174 343.906L195.278 346.991L192.796 336.068L166.819 341.856C165.967 337.105 166.591 342.017 166.065 336.805C166.213 336.656 166.369 336.507 166.524 336.358C166.939 335.972 167.287 335.607 167.28 335.258C166.984 317.279 167.873 286.681 175.296 268.145C176.459 265.118 177.992 262.248 179.86 259.601C180.008 259.4 180.149 259.2 180.29 258.999C183.713 254.188 185.876 249.452 188.943 246.083V246.076C188.962 246.06 188.98 246.043 188.995 246.024C189.006 246.018 189.016 246.011 189.025 246.001L210.095 234.789L210.999 260.278L211.643 278.599L212.251 295.693Z" fill="#764AF1"/>
<path d="M288.227 298.699L294.381 311.914L296.529 316.516L302.313 346.918L305.201 349.996L307.688 339.075L308.857 338.834L329.937 334.452L336.082 354.037C337.466 351.721 338.012 348.996 337.626 346.323C337.24 343.65 335.946 341.193 333.964 339.367C333.544 338.986 333.194 338.615 333.204 338.264C333.554 317.118 332.265 278.505 320.626 262.612C316.93 257.569 314.712 252.545 311.485 249.036C311.475 249.026 311.475 249.016 311.465 249.016L303.612 236.111L303.133 235.319L302.593 235.049L288.227 298.699Z" fill="#764AF1"/>
<path d="M250.945 203.206C266.927 203.206 279.883 190.203 279.883 174.162C279.883 158.122 266.927 145.119 250.945 145.119C234.963 145.119 222.007 158.122 222.007 174.162C222.007 190.203 234.963 203.206 250.945 203.206Z" fill="#FFB6B6"/>
<path d="M290.059 153.876C289.834 153.635 289.564 153.443 289.264 153.309C288.964 153.176 288.64 153.105 288.312 153.1L288.747 151.888C288.889 151.506 288.927 151.093 288.858 150.691C288.789 150.29 288.614 149.914 288.353 149.602C288.091 149.29 287.751 149.054 287.369 148.917C286.986 148.781 286.574 148.749 286.175 148.824L284.59 149.131L284.74 148.068C284.797 147.673 284.751 147.269 284.605 146.896C284.46 146.524 284.22 146.196 283.911 145.945C283.601 145.694 283.231 145.528 282.838 145.464C282.444 145.399 282.041 145.439 281.668 145.578C281.328 145.713 280.963 145.769 280.599 145.743C280.235 145.717 279.881 145.609 279.564 145.428C279.245 145.253 278.968 145.01 278.753 144.716C278.538 144.422 278.389 144.085 278.317 143.727L277.765 141.055L277.706 140.911C275.017 136.414 269.848 133.142 263.522 131.943C257.891 130.867 252.118 131.415 246.552 131.93C244.344 132.138 241.85 132.373 239.772 133.65C238.005 134.745 236.512 136.935 236.817 139.145C231.329 137.457 225.445 140.827 222.529 145.076C219.074 150.134 218.509 156.47 218.418 161.424C218.171 173.143 220.581 182.731 225.562 189.927C225.926 190.449 226.017 191.537 226.737 191.902L226.588 191.661C227.393 192.065 228.212 192.717 227.906 193.414C227.03 195.422 232.855 199.861 236.96 201.327C244.448 204.006 254.404 203.778 261.405 202.813L261.652 201.151C264.178 200.806 265.958 200.147 266.458 199.118C267.341 198.361 268.094 197.684 268.75 197.058L268.757 197.051C268.77 197.038 268.796 197.019 268.809 197.006C271.972 193.962 272.705 192.228 273.037 189.588C273.355 187.001 272.79 184.374 272.212 182.008C284.383 183.898 267.419 168.998 278.758 166.117C278.888 166.076 279.021 166.044 279.154 166.019C279.486 165.941 279.817 165.863 280.135 165.771C281.669 165.353 283.138 164.724 284.499 163.901C287.669 161.965 288.714 159.397 290.351 156.503C290.587 156.091 290.686 155.614 290.634 155.141C290.581 154.669 290.38 154.225 290.059 153.876Z" fill="#2F2E41"/>
<path d="M353.296 300.766C353.289 301.907 353.276 303.504 353.224 305.479C353.218 305.753 353.211 306.033 353.205 306.32C353.12 309.95 353.036 312.994 352.899 316.377C352.893 316.612 352.886 316.84 352.873 317.075C352.692 321.794 352.406 327.288 351.912 335.99C350.997 352.063 349.399 338.2 347.795 343.838C347.717 344.118 347.632 344.45 347.554 344.841C347.312 346.26 346.902 347.645 346.333 348.967C345.483 349.476 344.606 349.965 343.742 350.453C341.281 351.829 338.78 353.152 336.261 354.41C334.845 355.114 333.423 355.805 331.994 356.47C331.766 356.574 331.546 356.678 331.325 356.776C324.008 360.172 316.468 363.06 308.756 365.419C307.25 365.875 305.749 366.318 304.23 366.729C302.645 367.172 301.06 367.589 299.456 367.98C287.523 370.921 275.312 372.579 263.029 372.928C261.373 372.98 259.703 372.999 258.028 372.999C257.197 372.999 256.378 372.993 255.547 372.986C255.294 372.986 255.04 372.98 254.787 372.973C254.053 372.954 253.293 372.941 252.527 372.921C237.706 372.457 223.005 370.085 208.787 365.862L208.183 365.686C207.247 365.399 206.319 365.119 205.39 364.819C201.104 363.457 196.88 361.932 192.719 360.244C189.543 358.959 186.404 357.582 183.302 356.111C183.274 356.103 183.247 356.09 183.224 356.072C182.575 355.772 181.919 355.459 181.269 355.14C181.185 355.094 181.094 355.049 181.003 355.003C178.581 353.817 176.184 352.574 173.814 351.275C171.82 346.679 169.014 345.8 167.274 341.758C166.767 340.558 166.401 339.302 166.183 338.017C166.183 338.004 166.176 337.991 166.176 337.971C166.358 340.396 165.403 333.669 166.17 337.945C166.163 337.867 166.157 337.782 166.15 337.685C166.131 337.45 166.105 337.163 166.066 336.805C163.838 314.976 163.981 290.012 163.013 269.441C162.948 268.111 162.881 266.838 162.812 265.621C162.793 265.217 162.767 264.819 162.741 264.428C162.786 264.311 162.838 264.187 162.896 264.07C162.909 264.036 162.924 264.003 162.942 263.972C162.961 263.932 162.983 263.892 163.007 263.855C163.02 263.835 163.039 263.809 163.052 263.79C163.062 263.767 163.073 263.745 163.085 263.724C163.143 263.633 163.208 263.535 163.28 263.444C163.312 263.405 163.338 263.372 163.371 263.34C163.393 263.306 163.419 263.276 163.448 263.249C163.468 263.217 163.492 263.189 163.52 263.164C163.546 263.138 163.572 263.105 163.604 263.073C163.618 263.052 163.636 263.034 163.656 263.02C163.708 262.961 163.764 262.907 163.825 262.857C164.057 262.644 164.304 262.447 164.566 262.271C164.656 262.212 164.754 262.154 164.845 262.088C165.499 261.695 166.188 261.364 166.904 261.098C167.15 261.006 167.397 260.922 167.663 260.83C167.761 260.804 167.852 260.772 167.949 260.739C168.092 260.694 168.235 260.648 168.384 260.615C169.125 260.394 169.924 260.205 170.787 260.029C170.891 260.009 171.002 259.99 171.112 259.963C171.268 259.931 171.43 259.905 171.593 259.879C171.813 259.84 172.041 259.801 172.268 259.761C174.197 259.455 176.386 259.227 178.802 259.077C179.029 259.064 179.256 259.051 179.483 259.038C179.75 259.025 180.016 259.012 180.289 258.999C180.516 258.986 180.75 258.979 180.984 258.973C181.211 258.96 181.445 258.953 181.685 258.947C182.341 258.927 183.016 258.908 183.705 258.895C185.666 258.855 187.731 258.868 189.901 258.914C190.907 258.94 191.933 258.966 192.985 259.012C193.057 259.012 193.122 259.018 193.187 259.018C194.103 259.051 195.025 259.09 195.973 259.142C196.635 259.175 197.304 259.207 197.973 259.247C198.603 259.286 199.24 259.325 199.883 259.37C200.383 259.396 200.883 259.436 201.389 259.468C201.818 259.501 202.247 259.533 202.675 259.559L203.26 259.598C203.578 259.625 203.896 259.644 204.221 259.677C204.935 259.735 205.65 259.794 206.377 259.853C207.098 259.918 207.832 259.983 208.566 260.048C209.3 260.113 210.04 260.185 210.78 260.257C210.858 260.263 210.93 260.27 211.001 260.276C211.677 260.348 212.352 260.413 213.034 260.485C213.19 260.498 213.352 260.511 213.508 260.531C214.158 260.596 214.821 260.673 215.477 260.743C215.679 260.765 215.879 260.786 216.081 260.808C216.595 260.864 217.101 260.913 217.619 260.974C218.301 261.052 218.996 261.124 219.671 261.215C220.197 261.274 220.723 261.332 221.249 261.397C222.074 261.495 222.912 261.6 223.75 261.71C224.068 261.749 224.386 261.789 224.705 261.834C227.094 262.134 229.51 262.466 231.965 262.812C235.687 263.34 239.466 263.913 243.272 264.533C247.085 265.152 250.919 265.806 254.774 266.495C255.748 266.671 256.722 266.847 257.703 267.029C258.145 267.114 258.586 267.198 259.028 267.283C259.781 267.42 260.535 267.563 261.288 267.707C262.041 267.85 262.795 267.994 263.548 268.144C264.444 268.32 265.347 268.496 266.243 268.672C272.147 269.845 278.018 271.096 283.746 272.406C284.688 272.621 285.629 272.843 286.565 273.058C288.435 273.495 290.288 273.938 292.124 274.388C292.63 274.505 293.131 274.629 293.631 274.753C294.878 275.066 296.125 275.379 297.352 275.698L297.566 275.757C298.469 275.978 299.352 276.206 300.236 276.441C302.32 276.989 304.37 277.543 306.386 278.103C307.724 278.475 309.046 278.851 310.354 279.231C312.309 279.798 314.225 280.371 316.089 280.952C316.55 281.095 317.011 281.238 317.465 281.375C318.829 281.799 320.174 282.229 321.479 282.659C322.518 282.998 323.531 283.344 324.531 283.689C325.532 284.035 326.512 284.38 327.473 284.725C328.09 284.947 328.701 285.182 329.311 285.403C330.188 285.729 331.052 286.055 331.896 286.381C332.156 286.479 332.409 286.583 332.663 286.681C332.825 286.753 332.981 286.811 333.137 286.876C333.442 287 333.754 287.118 334.052 287.241C334.358 287.359 334.656 287.483 334.955 287.613C335.247 287.73 335.546 287.854 335.832 287.978C336.124 288.095 336.41 288.219 336.696 288.35C336.936 288.447 337.17 288.552 337.397 288.656C337.858 288.858 338.319 289.06 338.767 289.269C338.988 289.373 339.209 289.471 339.43 289.575L339.936 289.81C340.008 289.849 340.079 289.881 340.151 289.914C340.313 289.992 340.482 290.077 340.644 290.155C341.021 290.331 341.391 290.52 341.755 290.696C342.242 290.944 342.716 291.191 343.171 291.433C343.632 291.68 344.08 291.928 344.508 292.169C344.58 292.208 344.645 292.247 344.716 292.286C344.814 292.339 344.911 292.397 345.009 292.449C345.34 292.638 345.658 292.834 345.976 293.023C346.6 293.407 347.191 293.786 347.743 294.164C347.866 294.248 347.983 294.333 348.106 294.411C348.516 294.705 348.905 294.991 349.269 295.285C349.269 295.291 349.269 295.291 349.275 295.291C349.399 295.382 349.516 295.48 349.633 295.571C349.73 295.663 349.834 295.741 349.931 295.832C350.269 296.126 350.581 296.406 350.867 296.693C350.962 296.781 351.053 296.875 351.139 296.973C351.177 297.004 351.212 297.039 351.243 297.077C351.373 297.207 351.49 297.338 351.6 297.468C351.618 297.486 351.633 297.506 351.646 297.527C351.802 297.709 351.945 297.892 352.081 298.074C352.146 298.166 352.217 298.257 352.276 298.348C352.354 298.459 352.432 298.576 352.497 298.687C352.555 298.778 352.607 298.876 352.659 298.967C352.797 299.202 352.914 299.449 353.01 299.704C353.083 299.877 353.141 300.056 353.185 300.238C353.234 300.412 353.271 300.588 353.296 300.766Z" fill="#2F2E41"/>
<path opacity="0.2" d="M353.296 300.766C353.289 301.907 353.276 303.504 353.224 305.479C353.218 305.753 353.205 306.033 353.198 306.32C353.133 309.09 353.036 312.512 352.899 316.377C352.893 316.612 352.886 316.84 352.873 317.075C352.692 321.794 352.406 327.288 351.912 335.99C350.997 352.063 349.399 338.2 347.795 343.838C343.34 341.087 338.456 338.206 333.234 335.247C332.292 334.712 331.342 334.176 330.383 333.637C319.94 327.79 308.276 321.663 296.099 315.595C295.618 315.354 295.131 315.113 294.65 314.878C266.756 301.04 236.31 287.58 211.644 278.599C206.884 276.865 202.338 275.3 198.064 273.925C189.063 271.038 181.282 269.017 175.294 268.144C169.06 267.231 164.754 267.557 163.013 269.441C162.948 268.111 162.881 266.838 162.812 265.621C162.786 265.217 162.76 264.819 162.734 264.428C162.774 264.321 162.826 264.219 162.877 264.115C162.884 264.1 162.889 264.085 162.896 264.07C162.909 264.036 162.924 264.003 162.942 263.972C162.961 263.932 162.983 263.892 163.007 263.855C163.028 263.809 163.054 263.765 163.085 263.724C163.143 263.633 163.208 263.535 163.28 263.444C163.332 263.376 163.389 263.31 163.448 263.249C163.468 263.217 163.492 263.189 163.52 263.164C163.546 263.138 163.572 263.105 163.604 263.073C163.618 263.052 163.636 263.034 163.656 263.02C163.708 262.961 163.764 262.907 163.825 262.857C164.057 262.644 164.304 262.447 164.566 262.271C164.656 262.212 164.754 262.154 164.845 262.088C165.499 261.695 166.188 261.364 166.904 261.098C167.15 261.006 167.397 260.922 167.663 260.83C167.761 260.804 167.852 260.772 167.949 260.739C168.092 260.694 168.235 260.648 168.384 260.615C169.125 260.394 169.923 260.205 170.787 260.029C171.047 259.977 171.32 259.924 171.593 259.879C171.813 259.84 172.041 259.801 172.268 259.761C174.197 259.455 176.386 259.227 178.801 259.077C179.029 259.064 179.256 259.051 179.483 259.038C179.75 259.025 180.016 259.012 180.289 258.999C180.516 258.986 180.75 258.979 180.984 258.973C181.211 258.96 181.445 258.953 181.685 258.947C182.341 258.927 183.016 258.908 183.705 258.895C185.666 258.862 187.731 258.875 189.901 258.921C190.907 258.94 191.933 258.973 192.985 259.018C193.05 259.018 193.122 259.025 193.187 259.025C194.103 259.051 195.031 259.097 195.973 259.142C196.635 259.175 197.304 259.207 197.973 259.246C198.603 259.286 199.24 259.325 199.883 259.37C200.383 259.396 200.883 259.436 201.389 259.468C201.818 259.501 202.247 259.533 202.675 259.559C203.188 259.598 203.701 259.638 204.221 259.677C204.935 259.735 205.65 259.794 206.377 259.853C207.098 259.918 207.832 259.983 208.566 260.048C209.3 260.113 210.04 260.185 210.78 260.257C210.858 260.263 210.93 260.27 211.001 260.276C211.677 260.348 212.352 260.413 213.034 260.485C216.814 260.869 220.704 261.319 224.705 261.834C227.095 262.141 229.515 262.469 231.965 262.818C235.687 263.346 239.467 263.92 243.272 264.533C247.085 265.152 250.919 265.806 254.774 266.495C255.748 266.671 256.722 266.847 257.703 267.029C258.898 267.251 260.093 267.477 261.288 267.707C262.041 267.85 262.795 267.994 263.548 268.144C264.444 268.32 265.347 268.496 266.243 268.672C272.147 269.845 278.018 271.096 283.746 272.406C284.688 272.621 285.629 272.843 286.565 273.058C288.435 273.495 290.288 273.938 292.124 274.388C292.63 274.512 293.131 274.636 293.631 274.759C294.884 275.072 296.125 275.385 297.352 275.698V275.705C297.423 275.718 297.495 275.737 297.566 275.757C298.463 275.985 299.352 276.213 300.236 276.448C302.32 276.995 304.37 277.547 306.386 278.103C307.724 278.481 309.049 278.853 310.354 279.231C312.309 279.804 314.225 280.378 316.089 280.952C316.55 281.095 317.011 281.238 317.465 281.375C318.829 281.805 320.167 282.233 321.479 282.659C322.518 282.998 323.531 283.344 324.531 283.689C325.532 284.035 326.512 284.38 327.473 284.726C328.097 284.947 328.707 285.175 329.311 285.397C330.195 285.723 331.052 286.049 331.896 286.381C332.156 286.479 332.409 286.583 332.663 286.681C333.137 286.863 333.598 287.052 334.052 287.241C334.358 287.359 334.656 287.483 334.955 287.613C335.247 287.73 335.546 287.854 335.832 287.978C336.124 288.095 336.41 288.219 336.696 288.35C336.936 288.447 337.17 288.552 337.397 288.656C337.858 288.858 338.319 289.06 338.767 289.269C338.988 289.373 339.209 289.471 339.43 289.575L339.936 289.81C340.008 289.849 340.079 289.881 340.151 289.914C340.703 290.175 341.235 290.435 341.755 290.696C342.242 290.944 342.716 291.191 343.171 291.433C343.71 291.719 344.223 292 344.716 292.286C344.814 292.339 344.911 292.397 345.009 292.449C345.34 292.638 345.658 292.834 345.976 293.023C346.6 293.407 347.191 293.786 347.743 294.164C348.288 294.542 348.795 294.913 349.269 295.285C349.269 295.291 349.269 295.291 349.275 295.291C349.503 295.474 349.724 295.656 349.931 295.832C350.269 296.126 350.581 296.406 350.867 296.693C350.962 296.781 351.053 296.875 351.139 296.973C351.177 297.004 351.212 297.039 351.243 297.077C351.38 297.227 351.516 297.377 351.646 297.527C351.802 297.709 351.945 297.892 352.081 298.074C352.146 298.166 352.218 298.257 352.276 298.348C352.354 298.459 352.432 298.576 352.497 298.687C352.555 298.778 352.607 298.876 352.659 298.967C352.797 299.202 352.914 299.449 353.01 299.704C353.081 299.878 353.14 300.056 353.185 300.238C353.234 300.412 353.271 300.588 353.296 300.766Z" fill="black"/>
</g>
<defs>
<clipPath id="clip0_15_60">
<rect width="511" height="373" fill="white"/>
</clipPath>
</defs>
</svg>
